<?xml version="1.0" encoding="UTF-8"?>
<!DOCTYPE svg PUBLIC "-//W3C//DTD SVG 1.1//EN" "http://www.w3.org/Graphics/SVG/1.1/DTD/svg11.dtd">
<svg version="1.2" width="96mm" height="37mm" viewBox="0 0 9600 3700" preserveAspectRatio="xMidYMid" fill-rule="evenodd" stroke-width="28.222" stroke-linejoin="round" xmlns="http://www.w3.org/2000/svg" xmlns:ooo="http://xml.openoffice.org/svg/export" xmlns:xlink="http://www.w3.org/1999/xlink" xmlns:presentation="http://sun.com/xmlns/staroffice/presentation" xmlns:smil="http://www.w3.org/2001/SMIL20/" xmlns:anim="urn:oasis:names:tc:opendocument:xmlns:animation:1.0" xml:space="preserve">
 <defs class="ClipPathGroup">
  <clipPath id="presentation_clip_path" clipPathUnits="userSpaceOnUse">
   <rect x="0" y="0" width="9600" height="3700"/>
  </clipPath>
  <clipPath id="presentation_clip_path_shrink" clipPathUnits="userSpaceOnUse">
   <rect x="9" y="3" width="9581" height="3693"/>
  </clipPath>
 </defs>
 <defs class="TextShapeIndex">
  <g ooo:slide="id1" ooo:id-list="id3 id4 id5 id6"/>
 </defs>
 <defs class="EmbeddedBulletChars">
  <g id="bullet-char-template-57356" transform="scale(0.00048828125,-0.00048828125)">
   <path d="M 580,1141 L 1163,571 580,0 -4,571 580,1141 Z"/>
  </g>
  <g id="bullet-char-template-57354" transform="scale(0.00048828125,-0.00048828125)">
   <path d="M 8,1128 L 1137,1128 1137,0 8,0 8,1128 Z"/>
  </g>
  <g id="bullet-char-template-10146" transform="scale(0.00048828125,-0.00048828125)">
   <path d="M 174,0 L 602,739 174,1481 1456,739 174,0 Z M 1358,739 L 309,1346 659,739 1358,739 Z"/>
  </g>
  <g id="bullet-char-template-10132" transform="scale(0.00048828125,-0.00048828125)">
   <path d="M 2015,739 L 1276,0 717,0 1260,543 174,543 174,936 1260,936 717,1481 1274,1481 2015,739 Z"/>
  </g>
  <g id="bullet-char-template-10007" transform="scale(0.00048828125,-0.00048828125)">
   <path d="M 0,-2 C -7,14 -16,27 -25,37 L 356,567 C 262,823 215,952 215,954 215,979 228,992 255,992 264,992 276,990 289,987 310,991 331,999 354,1012 L 381,999 492,748 772,1049 836,1024 860,1049 C 881,1039 901,1025 922,1006 886,937 835,863 770,784 769,783 710,716 594,584 L 774,223 C 774,196 753,168 711,139 L 727,119 C 717,90 699,76 672,76 641,76 570,178 457,381 L 164,-76 C 142,-110 111,-127 72,-127 30,-127 9,-110 8,-76 1,-67 -2,-52 -2,-32 -2,-23 -1,-13 0,-2 Z"/>
  </g>
  <g id="bullet-char-template-10004" transform="scale(0.00048828125,-0.00048828125)">
   <path d="M 285,-33 C 182,-33 111,30 74,156 52,228 41,333 41,471 41,549 55,616 82,672 116,743 169,778 240,778 293,778 328,747 346,684 L 369,508 C 377,444 397,411 428,410 L 1163,1116 C 1174,1127 1196,1133 1229,1133 1271,1133 1292,1118 1292,1087 L 1292,965 C 1292,929 1282,901 1262,881 L 442,47 C 390,-6 338,-33 285,-33 Z"/>
  </g>
  <g id="bullet-char-template-9679" transform="scale(0.00048828125,-0.00048828125)">
   <path d="M 813,0 C 632,0 489,54 383,161 276,268 223,411 223,592 223,773 276,916 383,1023 489,1130 632,1184 813,1184 992,1184 1136,1130 1245,1023 1353,916 1407,772 1407,592 1407,412 1353,268 1245,161 1136,54 992,0 813,0 Z"/>
  </g>
  <g id="bullet-char-template-8226" transform="scale(0.00048828125,-0.00048828125)">
   <path d="M 346,457 C 273,457 209,483 155,535 101,586 74,649 74,723 74,796 101,859 155,911 209,963 273,989 346,989 419,989 480,963 531,910 582,859 608,796 608,723 608,648 583,586 532,535 482,483 420,457 346,457 Z"/>
  </g>
  <g id="bullet-char-template-8211" transform="scale(0.00048828125,-0.00048828125)">
   <path d="M -4,459 L 1135,459 1135,606 -4,606 -4,459 Z"/>
  </g>
  <g id="bullet-char-template-61548" transform="scale(0.00048828125,-0.00048828125)">
   <path d="M 173,740 C 173,903 231,1043 346,1159 462,1274 601,1332 765,1332 928,1332 1067,1274 1183,1159 1299,1043 1357,903 1357,740 1357,577 1299,437 1183,322 1067,206 928,148 765,148 601,148 462,206 346,322 231,437 173,577 173,740 Z"/>
  </g>
 </defs>
 <g>
  <g id="id2" class="Master_Slide">
   <g id="bg-id2" class="Background"/>
   <g id="bo-id2" class="BackgroundObjects"/>
  </g>
 </g>
 <g class="SlideGroup">
  <g>
   <g id="container-id1">
    <g id="id1" class="Slide" clip-path="url(#presentation_clip_path)">
     <g class="Page">
      <g class="Graphic">
       <g id="id3">
        <rect class="BoundingBox" stroke="none" fill="none" x="5494" y="2672" width="3233" height="661"/>
        <defs>
         <clipPath id="clip_path_1" clipPathUnits="userSpaceOnUse">
          <path d="M 5494,2672 L 8726,2672 8726,3332 5494,3332 5494,2672 Z"/>
         </clipPath>
        </defs>
        <g clip-path="url(#clip_path_1)"/>
        <defs>
         <clipPath id="clip_path_2" clipPathUnits="userSpaceOnUse">
          <path d="M 5724,3332 L 5695,3332 C 5672,3332 5651,3321 5637,3304 L 5499,3127 C 5496,3123 5494,3118 5494,3112 5494,3106 5496,3101 5499,3097 L 5638,2920 C 5651,2903 5672,2892 5696,2892 L 6002,2892 5828,3110 5701,3270 5724,3332 5724,3332 Z"/>
         </clipPath>
        </defs>
        <g clip-path="url(#clip_path_2)">
         <path fill="rgb(255,221,0)" stroke="none" d="M 6114,3028 L 6100,3039 5866,2740 5880,2729 6114,3028 Z"/>
         <path fill="rgb(254,220,0)" stroke="none" d="M 6109,3032 L 6095,3043 5860,2744 5875,2733 6109,3032 Z"/>
         <path fill="rgb(254,219,0)" stroke="none" d="M 6104,3036 L 6090,3047 5855,2748 5869,2737 6104,3036 Z"/>
         <path fill="rgb(253,218,0)" stroke="none" d="M 6098,3040 L 6084,3051 5850,2752 5864,2741 6098,3040 Z"/>
         <path fill="rgb(253,218,0)" stroke="none" d="M 6093,3045 L 6079,3056 5844,2756 5859,2745 6093,3045 Z"/>
         <path fill="rgb(252,217,0)" stroke="none" d="M 6088,3049 L 6074,3060 5839,2761 5853,2749 6088,3049 Z"/>
         <path fill="rgb(251,216,0)" stroke="none" d="M 6082,3053 L 6068,3064 5834,2765 5848,2754 6082,3053 Z"/>
         <path fill="rgb(251,215,0)" stroke="none" d="M 6077,3057 L 6063,3068 5828,2769 5843,2758 6077,3057 Z"/>
         <path fill="rgb(250,214,0)" stroke="none" d="M 6072,3061 L 6058,3072 5823,2773 5837,2762 6072,3061 Z"/>
         <path fill="rgb(250,213,0)" stroke="none" d="M 6066,3065 L 6052,3076 5818,2777 5832,2766 6066,3065 Z"/>
         <path fill="rgb(249,212,0)" stroke="none" d="M 6061,3069 L 6047,3081 5812,2781 5827,2770 6061,3069 Z"/>
         <path fill="rgb(248,212,0)" stroke="none" d="M 6056,3074 L 6042,3085 5807,2785 5821,2774 6056,3074 Z"/>
         <path fill="rgb(248,211,0)" stroke="none" d="M 6050,3078 L 6036,3089 5802,2790 5816,2779 6050,3078 Z"/>
         <path fill="rgb(247,210,0)" stroke="none" d="M 6045,3082 L 6031,3093 5796,2794 5811,2783 6045,3082 Z"/>
         <path fill="rgb(247,209,0)" stroke="none" d="M 6040,3086 L 6026,3097 5791,2798 5805,2787 6040,3086 Z"/>
         <path fill="rgb(246,208,0)" stroke="none" d="M 6034,3090 L 6020,3101 5786,2802 5800,2791 6034,3090 Z"/>
         <path fill="rgb(245,207,0)" stroke="none" d="M 6029,3094 L 6015,3106 5780,2806 5795,2795 6029,3094 Z"/>
         <path fill="rgb(245,206,0)" stroke="none" d="M 6024,3099 L 6010,3110 5775,2810 5789,2799 6024,3099 Z"/>
         <path fill="rgb(244,206,0)" stroke="none" d="M 6018,3103 L 6004,3114 5770,2815 5784,2803 6018,3103 Z"/>
         <path fill="rgb(244,205,0)" stroke="none" d="M 6013,3107 L 5999,3118 5764,2819 5779,2808 6013,3107 Z"/>
         <path fill="rgb(243,204,0)" stroke="none" d="M 6008,3111 L 5994,3122 5759,2823 5773,2812 6008,3111 Z"/>
         <path fill="rgb(242,203,0)" stroke="none" d="M 6002,3115 L 5988,3126 5754,2827 5768,2816 6002,3115 Z"/>
         <path fill="rgb(242,202,0)" stroke="none" d="M 5997,3119 L 5983,3130 5748,2831 5763,2820 5997,3119 Z"/>
         <path fill="rgb(241,201,0)" stroke="none" d="M 5992,3124 L 5978,3135 5743,2835 5757,2824 5992,3124 Z"/>
         <path fill="rgb(241,200,0)" stroke="none" d="M 5986,3128 L 5972,3139 5738,2839 5752,2828 5986,3128 Z"/>
         <path fill="rgb(240,199,0)" stroke="none" d="M 5981,3132 L 5967,3143 5732,2844 5747,2833 5981,3132 Z"/>
         <path fill="rgb(239,199,0)" stroke="none" d="M 5976,3136 L 5962,3147 5727,2848 5741,2837 5976,3136 Z"/>
         <path fill="rgb(239,198,0)" stroke="none" d="M 5970,3140 L 5956,3151 5722,2852 5736,2841 5970,3140 Z"/>
         <path fill="rgb(238,197,0)" stroke="none" d="M 5965,3144 L 5951,3155 5716,2856 5731,2845 5965,3144 Z"/>
         <path fill="rgb(238,196,0)" stroke="none" d="M 5960,3148 L 5946,3160 5711,2860 5725,2849 5960,3148 Z"/>
         <path fill="rgb(237,195,0)" stroke="none" d="M 5954,3153 L 5940,3164 5706,2864 5720,2853 5954,3153 Z"/>
         <path fill="rgb(236,194,0)" stroke="none" d="M 5949,3157 L 5935,3168 5700,2869 5715,2857 5949,3157 Z"/>
         <path fill="rgb(236,193,0)" stroke="none" d="M 5944,3161 L 5930,3172 5695,2873 5709,2862 5944,3161 Z"/>
         <path fill="rgb(235,193,0)" stroke="none" d="M 5938,3165 L 5924,3176 5690,2877 5704,2866 5938,3165 Z"/>
         <path fill="rgb(235,192,0)" stroke="none" d="M 5933,3169 L 5919,3180 5684,2881 5699,2870 5933,3169 Z"/>
         <path fill="rgb(234,191,0)" stroke="none" d="M 5928,3173 L 5914,3184 5679,2885 5693,2874 5928,3173 Z"/>
         <path fill="rgb(234,190,0)" stroke="none" d="M 5922,3178 L 5908,3189 5674,2889 5688,2878 5922,3178 Z"/>
         <path fill="rgb(233,189,0)" stroke="none" d="M 5917,3182 L 5903,3193 5668,2893 5683,2882 5917,3182 Z"/>
         <path fill="rgb(232,188,0)" stroke="none" d="M 5912,3186 L 5898,3197 5663,2898 5677,2887 5912,3186 Z"/>
         <path fill="rgb(232,187,0)" stroke="none" d="M 5906,3190 L 5892,3201 5658,2902 5672,2891 5906,3190 Z"/>
         <path fill="rgb(231,187,0)" stroke="none" d="M 5901,3194 L 5887,3205 5652,2906 5667,2895 5901,3194 Z"/>
         <path fill="rgb(231,186,0)" stroke="none" d="M 5896,3198 L 5882,3209 5647,2910 5661,2899 5896,3198 Z"/>
         <path fill="rgb(230,185,0)" stroke="none" d="M 5890,3202 L 5876,3214 5642,2914 5656,2903 5890,3202 Z"/>
         <path fill="rgb(229,184,0)" stroke="none" d="M 5885,3207 L 5871,3218 5636,2918 5651,2907 5885,3207 Z"/>
         <path fill="rgb(229,183,0)" stroke="none" d="M 5880,3211 L 5866,3222 5631,2923 5645,2911 5880,3211 Z"/>
         <path fill="rgb(228,182,0)" stroke="none" d="M 5874,3215 L 5860,3226 5626,2927 5640,2916 5874,3215 Z"/>
         <path fill="rgb(228,181,0)" stroke="none" d="M 5869,3219 L 5855,3230 5620,2931 5635,2920 5869,3219 Z"/>
         <path fill="rgb(227,181,0)" stroke="none" d="M 5864,3223 L 5850,3234 5615,2935 5629,2924 5864,3223 Z"/>
         <path fill="rgb(226,180,0)" stroke="none" d="M 5858,3227 L 5844,3238 5610,2939 5624,2928 5858,3227 Z"/>
         <path fill="rgb(226,179,0)" stroke="none" d="M 5853,3232 L 5839,3243 5604,2943 5619,2932 5853,3232 Z"/>
         <path fill="rgb(225,178,0)" stroke="none" d="M 5848,3236 L 5834,3247 5599,2948 5613,2936 5848,3236 Z"/>
         <path fill="rgb(225,177,0)" stroke="none" d="M 5842,3240 L 5828,3251 5594,2952 5608,2941 5842,3240 Z"/>
         <path fill="rgb(224,176,0)" stroke="none" d="M 5837,3244 L 5823,3255 5588,2956 5603,2945 5837,3244 Z"/>
         <path fill="rgb(223,175,0)" stroke="none" d="M 5832,3248 L 5818,3259 5583,2960 5597,2949 5832,3248 Z"/>
         <path fill="rgb(223,175,0)" stroke="none" d="M 5826,3252 L 5812,3263 5578,2964 5592,2953 5826,3252 Z"/>
         <path fill="rgb(222,174,0)" stroke="none" d="M 5821,3256 L 5807,3268 5572,2968 5587,2957 5821,3256 Z"/>
         <path fill="rgb(222,173,0)" stroke="none" d="M 5816,3261 L 5802,3272 5567,2972 5581,2961 5816,3261 Z"/>
         <path fill="rgb(221,172,0)" stroke="none" d="M 5810,3265 L 5796,3276 5562,2977 5576,2966 5810,3265 Z"/>
         <path fill="rgb(220,171,0)" stroke="none" d="M 5805,3269 L 5791,3280 5556,2981 5571,2970 5805,3269 Z"/>
         <path fill="rgb(220,170,0)" stroke="none" d="M 5800,3273 L 5786,3284 5551,2985 5565,2974 5800,3273 Z"/>
         <path fill="rgb(219,169,0)" stroke="none" d="M 5794,3277 L 5780,3288 5546,2989 5560,2978 5794,3277 Z"/>
         <path fill="rgb(219,168,0)" stroke="none" d="M 5789,3281 L 5775,3292 5540,2993 5555,2982 5789,3281 Z"/>
         <path fill="rgb(218,168,0)" stroke="none" d="M 5784,3286 L 5770,3297 5535,2997 5549,2986 5784,3286 Z"/>
         <path fill="rgb(217,167,0)" stroke="none" d="M 5778,3290 L 5764,3301 5530,3002 5544,2990 5778,3290 Z"/>
         <path fill="rgb(217,166,0)" stroke="none" d="M 5773,3294 L 5759,3305 5524,3006 5539,2995 5773,3294 Z"/>
         <path fill="rgb(216,165,0)" stroke="none" d="M 5768,3298 L 5754,3309 5519,3010 5533,2999 5768,3298 Z"/>
         <path fill="rgb(216,164,0)" stroke="none" d="M 5762,3302 L 5748,3313 5514,3014 5528,3003 5762,3302 Z"/>
         <path fill="rgb(215,163,0)" stroke="none" d="M 5757,3306 L 5743,3317 5508,3018 5523,3007 5757,3306 Z"/>
         <path fill="rgb(214,162,0)" stroke="none" d="M 5752,3310 L 5738,3322 5503,3022 5517,3011 5752,3310 Z"/>
         <path fill="rgb(214,162,0)" stroke="none" d="M 5746,3315 L 5732,3326 5498,3026 5512,3015 5746,3315 Z"/>
         <path fill="rgb(213,161,0)" stroke="none" d="M 5741,3319 L 5727,3330 5492,3031 5507,3020 5741,3319 Z"/>
         <path fill="rgb(213,160,0)" stroke="none" d="M 5736,3323 L 5722,3334 5487,3035 5501,3024 5736,3323 Z"/>
         <path fill="rgb(212,159,0)" stroke="none" d="M 5730,3327 L 5716,3338 5482,3039 5496,3028 5730,3327 Z"/>
         <path fill="rgb(217,167,0)" stroke="none" d="M 5725,3331 L 5711,3342 5476,3043 5491,3032 5725,3331 Z"/>
         <path fill="rgb(223,175,0)" stroke="none" d="M 5720,3335 L 5706,3346 5471,3047 5485,3036 5720,3335 Z"/>
         <path fill="rgb(228,182,0)" stroke="none" d="M 5714,3340 L 5700,3351 5466,3051 5480,3040 5714,3340 Z"/>
         <path fill="rgb(234,190,0)" stroke="none" d="M 5709,3344 L 5695,3355 5460,3056 5475,3044 5709,3344 Z"/>
         <path fill="rgb(239,198,0)" stroke="none" d="M 5704,3348 L 5690,3359 5455,3060 5469,3049 5704,3348 Z"/>
         <path fill="rgb(244,206,0)" stroke="none" d="M 5698,3352 L 5684,3363 5450,3064 5464,3053 5698,3352 Z"/>
         <path fill="rgb(250,213,0)" stroke="none" d="M 5693,3356 L 5679,3367 5444,3068 5459,3057 5693,3356 Z"/>
         <path fill="rgb(255,221,0)" stroke="none" d="M 5688,3360 L 5678,3368 5444,3068 5453,3061 5688,3360 Z"/>
        </g>
        <g clip-path="url(#clip_path_1)"/>
        <defs>
         <clipPath id="clip_path_3" clipPathUnits="userSpaceOnUse">
          <path d="M 5830,3112 L 5829,3110 5701,3270 C 5696,3276 5691,3285 5691,3299 5691,3314 5705,3332 5733,3332 L 6002,3332 5830,3112 5830,3112 Z"/>
         </clipPath>
        </defs>
        <g clip-path="url(#clip_path_3)">
         <path fill="rgb(212,159,0)" stroke="none" d="M 6029,3332 L 5924,3332 5924,3110 6029,3110 6029,3332 Z"/>
         <path fill="rgb(207,150,1)" stroke="none" d="M 5990,3332 L 5885,3332 5885,3110 5990,3110 5990,3332 Z"/>
         <path fill="rgb(202,141,2)" stroke="none" d="M 5951,3332 L 5846,3332 5846,3110 5951,3110 5951,3332 Z"/>
         <path fill="rgb(197,132,3)" stroke="none" d="M 5912,3332 L 5807,3332 5807,3110 5912,3110 5912,3332 Z"/>
         <path fill="rgb(192,124,4)" stroke="none" d="M 5873,3332 L 5768,3332 5768,3110 5873,3110 5873,3332 Z"/>
         <path fill="rgb(186,115,5)" stroke="none" d="M 5834,3332 L 5730,3332 5730,3110 5834,3110 5834,3332 Z"/>
         <path fill="rgb(181,106,6)" stroke="none" d="M 5796,3332 L 5691,3332 5691,3110 5796,3110 5796,3332 Z"/>
         <path fill="rgb(176,97,7)" stroke="none" d="M 5757,3332 L 5652,3332 5652,3110 5757,3110 5757,3332 Z"/>
         <path fill="rgb(171,88,8)" stroke="none" d="M 5718,3332 L 5652,3332 5652,3110 5718,3110 5718,3332 Z"/>
        </g>
        <g clip-path="url(#clip_path_1)"/>
        <defs>
         <clipPath id="clip_path_4" clipPathUnits="userSpaceOnUse">
          <path d="M 6193,2734 L 6170,2672 6199,2672 C 6222,2672 6243,2683 6257,2700 L 6395,2877 C 6398,2881 6401,2886 6401,2892 6401,2898 6398,2903 6395,2907 L 6256,3084 C 6242,3101 6222,3112 6198,3112 L 5892,3112 6066,2894 6193,2734 6193,2734 Z"/>
         </clipPath>
        </defs>
        <g clip-path="url(#clip_path_4)">
         <path fill="rgb(0,83,126)" stroke="none" d="M 5779,2975 L 5788,2968 6022,3268 6013,3275 5779,2975 Z"/>
         <path fill="rgb(0,83,126)" stroke="none" d="M 5779,2975 L 5794,2964 6028,3264 6013,3275 5779,2975 Z"/>
         <path fill="rgb(0,84,127)" stroke="none" d="M 5785,2971 L 5799,2960 6033,3260 6019,3271 5785,2971 Z"/>
         <path fill="rgb(1,85,129)" stroke="none" d="M 5790,2967 L 5804,2955 6039,3255 6024,3267 5790,2967 Z"/>
         <path fill="rgb(1,87,130)" stroke="none" d="M 5795,2962 L 5810,2951 6044,3251 6030,3262 5795,2962 Z"/>
         <path fill="rgb(1,88,132)" stroke="none" d="M 5801,2958 L 5815,2947 6050,3247 6035,3258 5801,2958 Z"/>
         <path fill="rgb(2,89,133)" stroke="none" d="M 5806,2954 L 5821,2943 6055,3243 6040,3254 5806,2954 Z"/>
         <path fill="rgb(2,90,134)" stroke="none" d="M 5812,2950 L 5826,2939 6060,3239 6046,3250 5812,2950 Z"/>
         <path fill="rgb(2,92,136)" stroke="none" d="M 5817,2946 L 5832,2934 6066,3234 6051,3246 5817,2946 Z"/>
         <path fill="rgb(3,93,137)" stroke="none" d="M 5823,2941 L 5837,2930 6071,3230 6057,3241 5823,2941 Z"/>
         <path fill="rgb(3,94,139)" stroke="none" d="M 5828,2937 L 5842,2926 6077,3226 6062,3237 5828,2937 Z"/>
         <path fill="rgb(3,95,140)" stroke="none" d="M 5833,2933 L 5848,2922 6082,3222 6068,3233 5833,2933 Z"/>
         <path fill="rgb(4,96,141)" stroke="none" d="M 5839,2929 L 5853,2918 6087,3218 6073,3229 5839,2929 Z"/>
         <path fill="rgb(4,98,143)" stroke="none" d="M 5844,2925 L 5859,2913 6093,3213 6078,3225 5844,2925 Z"/>
         <path fill="rgb(4,99,144)" stroke="none" d="M 5850,2920 L 5864,2909 6098,3209 6084,3220 5850,2920 Z"/>
         <path fill="rgb(5,100,146)" stroke="none" d="M 5855,2916 L 5870,2905 6104,3205 6089,3216 5855,2916 Z"/>
         <path fill="rgb(5,101,147)" stroke="none" d="M 5860,2912 L 5875,2901 6109,3201 6095,3212 5860,2912 Z"/>
         <path fill="rgb(5,103,149)" stroke="none" d="M 5866,2908 L 5880,2897 6115,3197 6100,3208 5866,2908 Z"/>
         <path fill="rgb(6,104,150)" stroke="none" d="M 5871,2904 L 5886,2892 6120,3192 6106,3204 5871,2904 Z"/>
         <path fill="rgb(6,105,151)" stroke="none" d="M 5877,2899 L 5891,2888 6125,3188 6111,3199 5877,2899 Z"/>
         <path fill="rgb(6,106,153)" stroke="none" d="M 5882,2895 L 5897,2884 6131,3184 6116,3195 5882,2895 Z"/>
         <path fill="rgb(7,108,154)" stroke="none" d="M 5888,2891 L 5902,2880 6136,3180 6122,3191 5888,2891 Z"/>
         <path fill="rgb(7,109,156)" stroke="none" d="M 5893,2887 L 5907,2876 6142,3175 6127,3187 5893,2887 Z"/>
         <path fill="rgb(7,110,157)" stroke="none" d="M 5898,2883 L 5913,2871 6147,3171 6133,3183 5898,2883 Z"/>
         <path fill="rgb(8,111,158)" stroke="none" d="M 5904,2878 L 5918,2867 6152,3167 6138,3178 5904,2878 Z"/>
         <path fill="rgb(8,112,160)" stroke="none" d="M 5909,2874 L 5924,2863 6158,3163 6143,3174 5909,2874 Z"/>
         <path fill="rgb(8,114,161)" stroke="none" d="M 5915,2870 L 5929,2859 6163,3159 6149,3170 5915,2870 Z"/>
         <path fill="rgb(9,115,163)" stroke="none" d="M 5920,2866 L 5935,2855 6169,3154 6154,3166 5920,2866 Z"/>
         <path fill="rgb(9,116,164)" stroke="none" d="M 5925,2862 L 5940,2850 6174,3150 6160,3161 5925,2862 Z"/>
         <path fill="rgb(9,117,165)" stroke="none" d="M 5931,2857 L 5945,2846 6180,3146 6165,3157 5931,2857 Z"/>
         <path fill="rgb(10,119,167)" stroke="none" d="M 5936,2853 L 5951,2842 6185,3142 6171,3153 5936,2853 Z"/>
         <path fill="rgb(10,120,168)" stroke="none" d="M 5942,2849 L 5956,2838 6190,3138 6176,3149 5942,2849 Z"/>
         <path fill="rgb(10,121,170)" stroke="none" d="M 5947,2845 L 5962,2833 6196,3133 6181,3145 5947,2845 Z"/>
         <path fill="rgb(11,122,171)" stroke="none" d="M 5953,2840 L 5967,2829 6201,3129 6187,3140 5953,2840 Z"/>
         <path fill="rgb(11,123,172)" stroke="none" d="M 5958,2836 L 5972,2825 6207,3125 6192,3136 5958,2836 Z"/>
         <path fill="rgb(11,125,174)" stroke="none" d="M 5963,2832 L 5978,2821 6212,3121 6198,3132 5963,2832 Z"/>
         <path fill="rgb(12,126,175)" stroke="none" d="M 5969,2828 L 5983,2817 6217,3117 6203,3128 5969,2828 Z"/>
         <path fill="rgb(12,127,177)" stroke="none" d="M 5974,2824 L 5989,2812 6223,3112 6208,3124 5974,2824 Z"/>
         <path fill="rgb(13,128,178)" stroke="none" d="M 5980,2819 L 5994,2808 6228,3108 6214,3119 5980,2819 Z"/>
         <path fill="rgb(13,130,180)" stroke="none" d="M 5985,2815 L 6000,2804 6234,3104 6219,3115 5985,2815 Z"/>
         <path fill="rgb(13,131,181)" stroke="none" d="M 5991,2811 L 6005,2800 6239,3100 6225,3111 5991,2811 Z"/>
         <path fill="rgb(14,132,182)" stroke="none" d="M 5996,2807 L 6010,2796 6245,3096 6230,3107 5996,2807 Z"/>
         <path fill="rgb(14,133,184)" stroke="none" d="M 6001,2803 L 6016,2791 6250,3091 6236,3103 6001,2803 Z"/>
         <path fill="rgb(14,134,185)" stroke="none" d="M 6007,2798 L 6021,2787 6255,3087 6241,3098 6007,2798 Z"/>
         <path fill="rgb(15,136,187)" stroke="none" d="M 6012,2794 L 6027,2783 6261,3083 6246,3094 6012,2794 Z"/>
         <path fill="rgb(15,137,188)" stroke="none" d="M 6018,2790 L 6032,2779 6266,3079 6252,3090 6018,2790 Z"/>
         <path fill="rgb(15,138,189)" stroke="none" d="M 6023,2786 L 6037,2775 6272,3075 6257,3086 6023,2786 Z"/>
         <path fill="rgb(16,139,191)" stroke="none" d="M 6028,2782 L 6043,2770 6277,3070 6263,3082 6028,2782 Z"/>
         <path fill="rgb(16,141,192)" stroke="none" d="M 6034,2777 L 6048,2766 6283,3066 6268,3077 6034,2777 Z"/>
         <path fill="rgb(16,142,194)" stroke="none" d="M 6039,2773 L 6054,2762 6288,3062 6273,3073 6039,2773 Z"/>
         <path fill="rgb(17,143,195)" stroke="none" d="M 6045,2769 L 6059,2758 6293,3058 6279,3069 6045,2769 Z"/>
         <path fill="rgb(17,144,196)" stroke="none" d="M 6050,2765 L 6065,2754 6299,3054 6284,3065 6050,2765 Z"/>
         <path fill="rgb(17,145,198)" stroke="none" d="M 6056,2761 L 6070,2749 6304,3049 6290,3061 6056,2761 Z"/>
         <path fill="rgb(18,147,199)" stroke="none" d="M 6061,2756 L 6075,2745 6310,3045 6295,3056 6061,2756 Z"/>
         <path fill="rgb(18,148,201)" stroke="none" d="M 6066,2752 L 6081,2741 6315,3041 6301,3052 6066,2752 Z"/>
         <path fill="rgb(18,149,202)" stroke="none" d="M 6072,2748 L 6086,2737 6320,3037 6306,3048 6072,2748 Z"/>
         <path fill="rgb(19,150,203)" stroke="none" d="M 6077,2744 L 6092,2733 6326,3033 6311,3044 6077,2744 Z"/>
         <path fill="rgb(19,152,205)" stroke="none" d="M 6083,2740 L 6097,2728 6331,3028 6317,3040 6083,2740 Z"/>
         <path fill="rgb(19,153,206)" stroke="none" d="M 6088,2735 L 6102,2724 6337,3024 6322,3035 6088,2735 Z"/>
         <path fill="rgb(20,154,208)" stroke="none" d="M 6093,2731 L 6108,2720 6342,3020 6328,3031 6093,2731 Z"/>
         <path fill="rgb(20,155,209)" stroke="none" d="M 6099,2727 L 6113,2716 6348,3016 6333,3027 6099,2727 Z"/>
         <path fill="rgb(20,157,211)" stroke="none" d="M 6104,2723 L 6119,2712 6353,3011 6338,3023 6104,2723 Z"/>
         <path fill="rgb(21,158,212)" stroke="none" d="M 6110,2719 L 6124,2707 6358,3007 6344,3018 6110,2719 Z"/>
         <path fill="rgb(21,159,213)" stroke="none" d="M 6115,2714 L 6130,2703 6364,3003 6349,3014 6115,2714 Z"/>
         <path fill="rgb(21,160,215)" stroke="none" d="M 6121,2710 L 6135,2699 6369,2999 6355,3010 6121,2710 Z"/>
         <path fill="rgb(22,161,216)" stroke="none" d="M 6126,2706 L 6140,2695 6375,2995 6360,3006 6126,2706 Z"/>
         <path fill="rgb(22,163,218)" stroke="none" d="M 6131,2702 L 6146,2690 6380,2990 6366,3002 6131,2702 Z"/>
         <path fill="rgb(22,164,219)" stroke="none" d="M 6137,2698 L 6151,2686 6385,2986 6371,2997 6137,2698 Z"/>
         <path fill="rgb(23,165,220)" stroke="none" d="M 6142,2693 L 6157,2682 6391,2982 6376,2993 6142,2693 Z"/>
         <path fill="rgb(23,166,222)" stroke="none" d="M 6148,2689 L 6162,2678 6396,2978 6382,2989 6148,2689 Z"/>
         <path fill="rgb(23,168,223)" stroke="none" d="M 6153,2685 L 6168,2674 6402,2974 6387,2985 6153,2685 Z"/>
         <path fill="rgb(24,169,225)" stroke="none" d="M 6158,2681 L 6173,2669 6407,2969 6393,2981 6158,2681 Z"/>
         <path fill="rgb(24,170,226)" stroke="none" d="M 6164,2676 L 6178,2665 6412,2965 6398,2976 6164,2676 Z"/>
         <path fill="rgb(23,164,222)" stroke="none" d="M 6169,2672 L 6184,2661 6418,2961 6403,2972 6169,2672 Z"/>
         <path fill="rgb(22,158,218)" stroke="none" d="M 6175,2668 L 6189,2657 6423,2957 6409,2968 6175,2668 Z"/>
         <path fill="rgb(21,152,213)" stroke="none" d="M 6180,2664 L 6194,2653 6428,2953 6414,2964 6180,2664 Z"/>
         <path fill="rgb(20,147,209)" stroke="none" d="M 6185,2660 L 6200,2649 6434,2949 6419,2960 6185,2660 Z"/>
         <path fill="rgb(19,141,205)" stroke="none" d="M 6191,2656 L 6205,2645 6439,2945 6425,2956 6191,2656 Z"/>
         <path fill="rgb(18,135,201)" stroke="none" d="M 6196,2652 L 6210,2640 6445,2940 6430,2952 6196,2652 Z"/>
         <path fill="rgb(17,129,196)" stroke="none" d="M 6201,2647 L 6216,2636 6450,2936 6435,2947 6201,2647 Z"/>
         <path fill="rgb(16,123,192)" stroke="none" d="M 6207,2643 L 6216,2636 6450,2936 6441,2943 6207,2643 Z"/>
        </g>
        <g clip-path="url(#clip_path_1)"/>
        <defs>
         <clipPath id="clip_path_5" clipPathUnits="userSpaceOnUse">
          <path d="M 6064,2892 L 6066,2894 6193,2734 C 6198,2728 6202,2719 6202,2705 6202,2690 6189,2672 6161,2672 L 5892,2672 6064,2892 6064,2892 Z"/>
         </clipPath>
        </defs>
        <g clip-path="url(#clip_path_5)">
         <path fill="rgb(0,37,66)" stroke="none" d="M 6251,2750 L 6237,2761 6063,2539 6077,2528 6251,2750 Z"/>
         <path fill="rgb(0,38,67)" stroke="none" d="M 6246,2754 L 6231,2765 6057,2543 6072,2532 6246,2754 Z"/>
         <path fill="rgb(0,39,68)" stroke="none" d="M 6240,2758 L 6226,2769 6052,2547 6066,2536 6240,2758 Z"/>
         <path fill="rgb(0,39,69)" stroke="none" d="M 6235,2762 L 6221,2774 6047,2551 6061,2540 6235,2762 Z"/>
         <path fill="rgb(0,40,71)" stroke="none" d="M 6230,2767 L 6215,2778 6041,2555 6056,2544 6230,2767 Z"/>
         <path fill="rgb(0,41,72)" stroke="none" d="M 6224,2771 L 6210,2782 6036,2560 6050,2549 6224,2771 Z"/>
         <path fill="rgb(0,42,73)" stroke="none" d="M 6219,2775 L 6205,2786 6031,2564 6045,2553 6219,2775 Z"/>
         <path fill="rgb(0,43,74)" stroke="none" d="M 6214,2779 L 6199,2790 6025,2568 6040,2557 6214,2779 Z"/>
         <path fill="rgb(0,44,75)" stroke="none" d="M 6208,2783 L 6194,2794 6020,2572 6034,2561 6208,2783 Z"/>
         <path fill="rgb(0,44,76)" stroke="none" d="M 6203,2787 L 6189,2799 6015,2576 6029,2565 6203,2787 Z"/>
         <path fill="rgb(0,45,77)" stroke="none" d="M 6198,2792 L 6183,2803 6009,2580 6023,2569 6198,2792 Z"/>
         <path fill="rgb(0,46,79)" stroke="none" d="M 6192,2796 L 6178,2807 6004,2585 6018,2573 6192,2796 Z"/>
         <path fill="rgb(0,47,80)" stroke="none" d="M 6187,2800 L 6173,2811 5999,2589 6013,2578 6187,2800 Z"/>
         <path fill="rgb(0,48,81)" stroke="none" d="M 6182,2804 L 6167,2815 5993,2593 6007,2582 6182,2804 Z"/>
         <path fill="rgb(0,49,82)" stroke="none" d="M 6176,2808 L 6162,2819 5988,2597 6002,2586 6176,2808 Z"/>
         <path fill="rgb(0,49,83)" stroke="none" d="M 6171,2812 L 6157,2823 5983,2601 5997,2590 6171,2812 Z"/>
         <path fill="rgb(0,50,84)" stroke="none" d="M 6166,2817 L 6151,2828 5977,2605 5991,2594 6166,2817 Z"/>
         <path fill="rgb(0,51,86)" stroke="none" d="M 6160,2821 L 6146,2832 5972,2610 5986,2598 6160,2821 Z"/>
         <path fill="rgb(0,52,87)" stroke="none" d="M 6155,2825 L 6141,2836 5967,2614 5981,2603 6155,2825 Z"/>
         <path fill="rgb(0,53,88)" stroke="none" d="M 6150,2829 L 6135,2840 5961,2618 5975,2607 6150,2829 Z"/>
         <path fill="rgb(0,53,89)" stroke="none" d="M 6144,2833 L 6130,2844 5956,2622 5970,2611 6144,2833 Z"/>
         <path fill="rgb(0,54,90)" stroke="none" d="M 6139,2837 L 6125,2848 5951,2626 5965,2615 6139,2837 Z"/>
         <path fill="rgb(0,55,91)" stroke="none" d="M 6134,2842 L 6119,2853 5945,2630 5959,2619 6134,2842 Z"/>
         <path fill="rgb(0,56,92)" stroke="none" d="M 6128,2846 L 6114,2857 5940,2634 5954,2623 6128,2846 Z"/>
         <path fill="rgb(0,57,94)" stroke="none" d="M 6123,2850 L 6109,2861 5935,2639 5949,2628 6123,2850 Z"/>
         <path fill="rgb(0,58,95)" stroke="none" d="M 6118,2854 L 6103,2865 5929,2643 5943,2632 6118,2854 Z"/>
         <path fill="rgb(0,58,96)" stroke="none" d="M 6112,2858 L 6098,2869 5924,2647 5938,2636 6112,2858 Z"/>
         <path fill="rgb(0,59,97)" stroke="none" d="M 6107,2862 L 6093,2873 5919,2651 5933,2640 6107,2862 Z"/>
         <path fill="rgb(0,60,98)" stroke="none" d="M 6102,2866 L 6087,2878 5913,2655 5927,2644 6102,2866 Z"/>
         <path fill="rgb(0,61,99)" stroke="none" d="M 6096,2871 L 6082,2882 5908,2659 5922,2648 6096,2871 Z"/>
         <path fill="rgb(0,62,100)" stroke="none" d="M 6091,2875 L 6077,2886 5902,2664 5917,2653 6091,2875 Z"/>
         <path fill="rgb(0,63,102)" stroke="none" d="M 6086,2879 L 6071,2890 5897,2668 5911,2657 6086,2879 Z"/>
         <path fill="rgb(0,63,103)" stroke="none" d="M 6080,2883 L 6066,2894 5892,2672 5906,2661 6080,2883 Z"/>
         <path fill="rgb(0,64,104)" stroke="none" d="M 6075,2887 L 6061,2898 5886,2676 5901,2665 6075,2887 Z"/>
         <path fill="rgb(0,65,105)" stroke="none" d="M 6070,2891 L 6061,2898 5886,2676 5895,2669 6070,2891 Z"/>
        </g>
        <g clip-path="url(#clip_path_1)">
         <path fill="rgb(11,187,239)" stroke="none" d="M 6200,2731 C 6205,2725 6208,2718 6208,2709 6208,2689 6191,2672 6171,2672 L 6162,2672 C 6182,2672 6198,2689 6198,2709 6198,2718 6195,2726 6190,2731 L 6064,2892 5892,3111 6200,2731 6200,2731 Z"/>
         <path fill="rgb(255,213,0)" stroke="none" d="M 5694,3273 C 5689,3279 5686,3286 5686,3295 5686,3315 5703,3332 5723,3332 L 5733,3332 C 5712,3332 5696,3315 5696,3295 5696,3286 5699,3278 5704,3273 L 5830,3112 6002,2893 5694,3273 5694,3273 Z"/>
         <path fill="rgb(6,65,106)" stroke="none" d="M 7549,2982 C 7532,2982 7518,2984 7504,2988 7481,2995 7463,3008 7450,3025 7428,3054 7428,3089 7428,3089 L 7428,3331 7493,3331 C 7497,3331 7500,3327 7500,3323 L 7500,3094 C 7500,3090 7501,3074 7510,3066 7517,3059 7526,3056 7536,3055 7546,3053 7556,3054 7561,3055 7561,3055 7562,3055 7563,3055 7568,3055 7571,3052 7573,3048 L 7607,2991 C 7589,2985 7571,2981 7549,2982 Z"/>
         <path fill="rgb(6,65,106)" stroke="none" d="M 7359,2982 C 7342,2982 7327,2984 7314,2988 7290,2995 7273,3008 7260,3025 7237,3054 7238,3089 7238,3089 L 7238,3331 7303,3331 C 7307,3331 7310,3327 7310,3323 L 7310,3094 C 7310,3090 7311,3074 7319,3066 7327,3059 7336,3056 7346,3055 7356,3053 7366,3054 7371,3055 7371,3055 7372,3055 7372,3055 7377,3055 7381,3052 7383,3048 L 7417,2990 C 7399,2985 7380,2981 7359,2982 Z"/>
         <path fill="rgb(6,65,106)" stroke="none" d="M 6795,3242 C 6792,3239 6788,3236 6784,3236 6782,3236 6779,3237 6777,3239 L 6777,3239 C 6755,3252 6729,3260 6702,3260 6620,3260 6554,3194 6554,3112 6554,3031 6620,2965 6702,2965 6729,2965 6755,2972 6777,2986 6779,2988 6782,2988 6784,2988 6789,2988 6792,2986 6795,2983 L 6832,2935 C 6796,2909 6751,2893 6702,2893 6580,2893 6481,2991 6481,3113 6481,3234 6580,3333 6702,3333 6750,3333 6795,3317 6832,3290 L 6795,3242 6795,3242 Z"/>
         <path fill="rgb(6,65,106)" stroke="none" d="M 7775,3046 L 7775,3046 C 7823,3046 7864,3077 7878,3120 L 7673,3120 C 7687,3077 7728,3046 7775,3046 Z M 7775,2977 C 7677,2977 7597,3056 7597,3154 7597,3251 7677,3331 7775,3331 7777,3331 7780,3331 7780,3331 7819,3331 7850,3326 7891,3299 L 7898,3295 C 7898,3295 7862,3248 7861,3247 7859,3244 7854,3242 7851,3242 7849,3242 7846,3243 7844,3244 7835,3249 7806,3261 7775,3261 7728,3261 7688,3231 7673,3189 L 7917,3189 7945,3189 C 7949,3189 7952,3186 7952,3182 L 7953,3162 C 7953,3159 7953,3157 7953,3154 7954,3056 7874,2977 7775,2977 L 7775,2977 Z"/>
         <path fill="rgb(6,65,106)" stroke="none" d="M 8002,3332 C 7998,3332 7995,3329 7995,3325 L 7995,2995 C 7995,2992 7998,2988 8002,2988 L 8060,2988 C 8064,2988 8067,2992 8067,2995 L 8067,3325 C 8067,3329 8063,3332 8060,3332 L 8002,3332 8002,3332 Z"/>
         <path fill="rgb(6,65,106)" stroke="none" d="M 7023,3045 L 7023,3045 C 6964,3045 6916,3092 6916,3152 6916,3211 6964,3259 7023,3259 7083,3259 7131,3211 7131,3152 7131,3092 7083,3045 7023,3045 Z M 7023,3332 C 6924,3332 6843,3252 6843,3153 6843,3053 6924,2973 7023,2973 7123,2973 7203,3053 7203,3153 7203,3251 7123,3332 7023,3332 L 7023,3332 Z"/>
         <path fill="rgb(6,65,106)" stroke="none" d="M 8282,3048 L 8282,3048 C 8223,3048 8175,3095 8175,3154 8175,3213 8223,3260 8282,3260 8341,3260 8389,3212 8389,3154 8389,3095 8341,3048 8282,3048 Z M 8282,3331 C 8183,3331 8103,3252 8103,3153 8103,3055 8183,2975 8282,2975 8381,2975 8460,3055 8460,3153 8460,3252 8381,3331 8282,3331 L 8282,3331 Z"/>
         <path fill="rgb(6,65,106)" stroke="none" d="M 8663,3126 C 8651,3121 8635,3117 8617,3113 8592,3106 8568,3105 8559,3091 8551,3078 8555,3064 8566,3056 8592,3038 8626,3045 8645,3054 8648,3056 8662,3064 8662,3064 8664,3065 8666,3066 8669,3066 8673,3066 8677,3064 8680,3060 L 8716,3014 8710,3009 C 8706,3006 8701,3003 8696,3000 8685,2994 8653,2975 8606,2975 8604,2975 8603,2975 8601,2975 8497,2977 8483,3050 8483,3077 8483,3116 8503,3144 8534,3161 8558,3175 8604,3183 8627,3190 8640,3194 8648,3202 8652,3210 8653,3214 8654,3218 8654,3222 8655,3236 8648,3251 8627,3257 8605,3264 8570,3261 8538,3236 8537,3236 8534,3233 8532,3232 8531,3231 8529,3231 8527,3231 8523,3231 8519,3234 8516,3237 8516,3238 8481,3283 8481,3283 8481,3283 8493,3293 8497,3296 8518,3311 8554,3331 8601,3331 L 8603,3331 C 8703,3331 8726,3260 8726,3221 8726,3182 8702,3144 8663,3126 Z"/>
        </g>
       </g>
      </g>
      <g class="com.sun.star.drawing.CustomShape">
       <g id="id4">
        <rect class="BoundingBox" stroke="none" fill="none" x="643" y="429" width="2639" height="2922"/>
        <path fill="none" stroke="rgb(221,221,221)" stroke-width="159" stroke-linejoin="round" d="M 736,1185 L 1907,509 3201,1174 3189,2594 2018,3270 723,2605 736,1185 Z"/>
       </g>
      </g>
      <g class="com.sun.star.drawing.CustomShape">
       <g id="id5">
        <rect class="BoundingBox" stroke="none" fill="none" x="578" y="821" width="1701" height="2173"/>
        <path fill="rgb(255,222,89)" stroke="none" d="M 2251,1907 L 605,2966 605,848 2251,1907 Z"/>
        <path fill="none" stroke="rgb(255,255,255)" stroke-width="53" stroke-linejoin="round" d="M 2251,1907 L 605,2966 605,848 2251,1907 Z"/>
       </g>
      </g>
      <g class="com.sun.star.drawing.CustomShape">
       <g id="id6">
        <rect class="BoundingBox" stroke="none" fill="none" x="720" y="1283" width="8356" height="1264"/>
        <path fill="rgb(53,82,105)" stroke="none" d="M 1622,2110 L 1614,2161 1605,2208 1592,2252 1577,2294 1559,2331 1548,2348 1537,2365 1526,2381 1514,2396 1501,2410 1487,2424 1472,2437 1457,2448 1442,2459 1426,2470 1391,2488 1355,2502 1316,2513 1275,2522 1232,2526 1186,2528 1136,2526 1113,2523 1090,2519 1066,2513 1045,2507 1024,2500 1002,2490 983,2480 964,2469 945,2456 926,2443 909,2428 892,2412 876,2394 860,2376 845,2357 832,2336 819,2315 807,2293 785,2247 768,2198 755,2145 746,2089 740,2030 738,1968 738,1856 739,1816 742,1776 746,1738 752,1701 760,1664 770,1630 781,1596 794,1564 810,1533 826,1504 843,1478 863,1452 884,1429 906,1407 930,1387 956,1369 982,1353 1011,1339 1039,1327 1069,1318 1100,1310 1132,1305 1165,1302 1199,1301 1244,1303 1287,1307 1326,1315 1364,1327 1399,1342 1417,1352 1433,1361 1449,1372 1464,1383 1478,1395 1493,1408 1506,1422 1519,1437 1531,1452 1542,1468 1553,1485 1563,1503 1580,1541 1595,1582 1606,1626 1615,1673 1622,1723 1445,1723 1439,1688 1432,1655 1424,1625 1415,1598 1404,1574 1392,1552 1386,1542 1380,1533 1373,1525 1366,1517 1359,1510 1351,1503 1342,1497 1333,1491 1324,1486 1315,1482 1305,1478 1295,1473 1273,1467 1250,1463 1226,1461 1199,1459 1167,1461 1152,1463 1136,1466 1122,1469 1108,1473 1095,1479 1082,1485 1068,1491 1056,1499 1045,1507 1034,1517 1023,1527 1012,1537 1001,1549 992,1562 983,1575 975,1590 967,1603 960,1619 947,1653 935,1688 927,1727 922,1768 918,1813 917,1860 917,1973 918,2017 921,2060 927,2100 934,2138 945,2173 957,2205 971,2236 979,2250 988,2264 997,2277 1006,2288 1017,2300 1028,2311 1038,2319 1049,2329 1061,2336 1073,2343 1086,2349 1099,2355 1112,2359 1126,2363 1140,2366 1156,2367 1171,2369 1186,2369 1215,2368 1241,2366 1265,2362 1288,2357 1309,2349 1319,2344 1328,2340 1337,2334 1345,2329 1354,2323 1362,2316 1369,2309 1376,2301 1383,2293 1389,2283 1396,2273 1401,2262 1412,2238 1423,2211 1431,2181 1439,2147 1445,2110 1622,2110 Z M 2692,1951 L 2691,1994 2688,2036 2684,2076 2678,2116 2670,2153 2660,2189 2649,2224 2636,2257 2620,2289 2604,2319 2587,2347 2568,2374 2546,2398 2524,2421 2501,2441 2475,2459 2449,2475 2421,2490 2392,2502 2363,2511 2332,2519 2300,2524 2267,2527 2233,2528 2199,2527 2167,2524 2135,2519 2104,2510 2074,2501 2046,2489 2018,2474 1992,2458 1967,2440 1942,2420 1920,2397 1900,2374 1879,2348 1861,2320 1845,2291 1830,2260 1816,2227 1804,2192 1794,2157 1786,2121 1779,2082 1774,2044 1771,2004 1770,1962 1770,1878 1771,1835 1773,1794 1778,1755 1784,1717 1792,1679 1801,1643 1813,1609 1827,1575 1842,1543 1858,1513 1876,1484 1896,1458 1917,1434 1940,1411 1965,1391 1990,1372 2016,1355 2045,1341 2073,1328 2103,1319 2133,1310 2165,1305 2197,1302 2231,1301 2265,1302 2298,1305 2330,1310 2360,1319 2391,1328 2419,1340 2448,1355 2474,1371 2500,1389 2524,1409 2546,1432 2567,1456 2587,1483 2604,1511 2620,1541 2636,1573 2649,1607 2660,1641 2670,1677 2678,1714 2684,1754 2688,1793 2691,1835 2692,1878 2692,1951 Z M 2515,1877 L 2514,1829 2510,1783 2505,1740 2495,1701 2485,1663 2472,1630 2465,1614 2457,1599 2449,1585 2440,1571 2431,1559 2420,1547 2409,1536 2399,1526 2387,1516 2375,1507 2363,1500 2350,1493 2337,1486 2323,1481 2309,1477 2294,1472 2278,1470 2263,1468 2231,1466 2214,1466 2199,1468 2184,1470 2170,1472 2154,1477 2141,1481 2128,1486 2115,1493 2102,1500 2089,1507 2078,1516 2066,1526 2056,1536 2045,1547 2035,1559 2026,1571 2008,1599 1992,1628 1979,1660 1969,1693 1960,1729 1953,1767 1949,1807 1947,1849 1947,1951 1948,1999 1952,2044 1959,2087 1967,2126 1977,2163 1990,2197 2005,2228 2014,2243 2024,2256 2034,2269 2044,2282 2054,2294 2065,2304 2076,2314 2088,2323 2101,2331 2114,2339 2127,2344 2141,2350 2155,2355 2170,2359 2185,2361 2200,2363 2216,2365 2233,2365 2265,2364 2280,2362 2296,2359 2310,2356 2324,2351 2337,2346 2350,2340 2363,2333 2375,2326 2387,2317 2398,2308 2409,2298 2419,2287 2430,2276 2439,2263 2448,2250 2456,2235 2464,2221 2471,2205 2484,2172 2494,2136 2503,2097 2509,2056 2513,2011 2515,1963 2515,1877 Z M 3783,2512 L 3611,2512 3079,1616 3079,2512 2900,2512 2900,1317 3072,1317 3605,2216 3605,1317 3783,1317 3783,2512 Z M 4878,2110 L 4871,2161 4861,2208 4848,2252 4833,2294 4815,2331 4805,2348 4793,2365 4782,2381 4770,2396 4757,2410 4743,2424 4728,2437 4713,2448 4698,2459 4682,2470 4647,2488 4611,2502 4572,2513 4532,2522 4488,2526 4442,2528 4393,2526 4369,2523 4346,2519 4322,2513 4301,2507 4280,2500 4259,2490 4239,2480 4220,2469 4201,2456 4182,2443 4165,2428 4148,2412 4132,2394 4116,2376 4101,2357 4088,2336 4075,2315 4063,2293 4041,2247 4024,2198 4011,2145 4002,2089 3996,2030 3994,1968 3994,1856 3995,1816 3998,1776 4002,1738 4008,1701 4016,1664 4026,1630 4037,1596 4050,1564 4066,1533 4082,1504 4099,1478 4119,1452 4140,1429 4162,1407 4186,1387 4212,1369 4238,1353 4267,1339 4295,1327 4326,1318 4356,1310 4388,1305 4421,1302 4455,1301 4500,1303 4543,1307 4582,1315 4620,1327 4655,1342 4673,1352 4689,1361 4705,1372 4720,1383 4735,1395 4749,1408 4762,1422 4775,1437 4787,1452 4799,1468 4809,1485 4819,1503 4836,1541 4851,1582 4862,1626 4872,1673 4878,1723 4701,1723 4695,1688 4688,1655 4680,1625 4671,1598 4660,1574 4648,1552 4642,1542 4636,1533 4629,1525 4622,1517 4615,1510 4607,1503 4599,1497 4589,1491 4580,1486 4571,1482 4561,1478 4551,1473 4530,1467 4506,1463 4482,1461 4455,1459 4423,1461 4408,1463 4393,1466 4378,1469 4364,1473 4351,1479 4338,1485 4325,1491 4312,1499 4301,1507 4290,1517 4279,1527 4268,1537 4258,1549 4248,1562 4239,1575 4231,1590 4223,1603 4216,1619 4203,1653 4192,1688 4183,1727 4178,1768 4174,1813 4173,1860 4173,1973 4174,2017 4177,2060 4183,2100 4191,2138 4201,2173 4213,2205 4227,2236 4235,2250 4244,2264 4253,2277 4263,2288 4273,2300 4284,2311 4294,2319 4305,2329 4317,2336 4330,2343 4342,2349 4355,2355 4368,2359 4382,2363 4397,2366 4412,2367 4427,2369 4442,2369 4471,2368 4497,2366 4521,2362 4544,2357 4565,2349 4575,2344 4584,2340 4593,2334 4602,2329 4610,2323 4618,2316 4625,2309 4632,2301 4639,2293 4645,2283 4652,2273 4657,2262 4669,2238 4679,2211 4687,2181 4695,2147 4701,2110 4878,2110 Z M 5949,1951 L 5948,1994 5944,2036 5940,2076 5934,2116 5926,2153 5916,2189 5905,2224 5892,2257 5876,2289 5860,2319 5843,2347 5824,2374 5802,2398 5780,2421 5757,2441 5731,2459 5705,2475 5678,2490 5648,2502 5619,2511 5588,2519 5556,2524 5523,2527 5489,2528 5455,2527 5423,2524 5391,2519 5360,2510 5330,2501 5302,2489 5275,2474 5248,2458 5223,2440 5198,2420 5176,2397 5156,2374 5136,2348 5117,2320 5101,2291 5086,2260 5073,2227 5060,2192 5050,2157 5042,2121 5035,2082 5030,2044 5027,2004 5026,1962 5026,1878 5027,1835 5029,1794 5034,1755 5040,1717 5048,1679 5057,1643 5070,1609 5083,1575 5098,1543 5114,1513 5132,1484 5152,1458 5173,1434 5196,1411 5221,1391 5246,1372 5273,1355 5301,1341 5329,1328 5359,1319 5389,1310 5421,1305 5453,1302 5487,1301 5521,1302 5554,1305 5586,1310 5617,1319 5647,1328 5675,1340 5704,1355 5730,1371 5756,1389 5780,1409 5802,1432 5823,1456 5843,1483 5860,1511 5876,1541 5892,1573 5905,1607 5916,1641 5926,1677 5934,1714 5940,1754 5944,1793 5948,1835 5949,1878 5949,1951 Z M 5771,1877 L 5770,1829 5766,1783 5761,1740 5752,1701 5741,1663 5728,1630 5721,1614 5713,1599 5705,1585 5696,1571 5687,1559 5677,1547 5665,1536 5655,1526 5643,1516 5631,1507 5619,1500 5606,1493 5593,1486 5579,1481 5565,1477 5550,1472 5534,1470 5519,1468 5487,1466 5470,1466 5455,1468 5440,1470 5426,1472 5411,1477 5397,1481 5384,1486 5371,1493 5358,1500 5346,1507 5334,1516 5322,1526 5312,1536 5301,1547 5291,1559 5282,1571 5264,1599 5248,1628 5235,1660 5225,1693 5216,1729 5210,1767 5206,1807 5204,1849 5204,1951 5205,1999 5209,2044 5215,2087 5223,2126 5233,2163 5246,2197 5261,2228 5271,2243 5280,2256 5290,2269 5300,2282 5310,2294 5321,2304 5332,2314 5345,2323 5357,2331 5370,2339 5383,2344 5397,2350 5412,2355 5426,2359 5441,2361 5456,2363 5472,2365 5489,2365 5521,2364 5536,2362 5552,2359 5566,2356 5580,2351 5593,2346 5606,2340 5619,2333 5631,2326 5643,2317 5654,2308 5665,2298 5675,2287 5686,2276 5695,2263 5704,2250 5712,2235 5720,2221 5727,2205 5740,2172 5751,2136 5759,2097 5765,2056 5769,2011 5771,1963 5771,1877 Z M 7040,1951 L 7039,1994 7036,2036 7032,2076 7025,2116 7017,2153 7007,2189 6996,2224 6983,2257 6968,2289 6951,2319 6934,2347 6915,2374 6893,2398 6871,2421 6848,2441 6822,2459 6796,2475 6769,2490 6739,2502 6710,2511 6679,2519 6647,2524 6614,2527 6580,2528 6546,2527 6514,2524 6482,2519 6451,2510 6422,2501 6393,2489 6366,2474 6339,2458 6314,2440 6290,2420 6267,2397 6247,2374 6227,2348 6208,2320 6192,2291 6177,2260 6164,2227 6152,2192 6141,2157 6133,2121 6126,2082 6121,2044 6118,2004 6117,1962 6117,1878 6118,1835 6120,1794 6125,1755 6131,1717 6139,1679 6148,1643 6161,1609 6174,1575 6189,1543 6205,1513 6224,1484 6243,1458 6264,1434 6288,1411 6312,1391 6337,1372 6364,1355 6392,1341 6421,1328 6450,1319 6480,1310 6512,1305 6544,1302 6578,1301 6612,1302 6645,1305 6677,1310 6708,1319 6738,1328 6767,1340 6795,1355 6821,1371 6847,1389 6871,1409 6893,1432 6914,1456 6934,1483 6951,1511 6968,1541 6983,1573 6996,1607 7007,1641 7017,1677 7025,1714 7032,1754 7036,1793 7039,1835 7040,1878 7040,1951 Z M 6862,1877 L 6861,1829 6857,1783 6852,1740 6843,1701 6833,1663 6819,1630 6812,1614 6804,1599 6796,1585 6787,1571 6778,1559 6768,1547 6756,1536 6746,1526 6734,1516 6722,1507 6710,1500 6698,1493 6684,1486 6670,1481 6656,1477 6641,1472 6626,1470 6610,1468 6578,1466 6562,1466 6546,1468 6531,1470 6517,1472 6502,1477 6489,1481 6475,1486 6462,1493 6449,1500 6437,1507 6426,1516 6413,1526 6403,1536 6392,1547 6382,1559 6373,1571 6356,1599 6339,1628 6326,1660 6316,1693 6307,1729 6301,1767 6297,1807 6295,1849 6295,1951 6296,1999 6300,2044 6306,2087 6314,2126 6324,2163 6337,2197 6353,2228 6362,2243 6371,2256 6381,2269 6391,2282 6401,2294 6412,2304 6424,2314 6436,2323 6448,2331 6461,2339 6474,2344 6489,2350 6503,2355 6517,2359 6532,2361 6547,2363 6564,2365 6580,2365 6612,2364 6628,2362 6643,2359 6657,2356 6671,2351 6684,2346 6698,2340 6710,2333 6722,2326 6734,2317 6745,2308 6756,2298 6767,2287 6777,2276 6786,2263 6795,2250 6803,2235 6811,2221 6818,2205 6832,2172 6842,2136 6850,2097 6856,2056 6860,2011 6862,1963 6862,1877 Z M 7659,2043 L 7425,2043 7425,2512 7247,2512 7247,1317 7629,1317 7676,1318 7720,1322 7761,1329 7800,1340 7836,1353 7853,1360 7869,1369 7885,1378 7900,1388 7915,1399 7928,1410 7941,1422 7952,1435 7963,1449 7974,1463 7984,1478 7992,1493 8000,1509 8007,1526 8013,1543 8018,1561 8023,1580 8027,1599 8031,1640 8033,1682 8032,1711 8029,1738 8025,1765 8019,1790 8010,1815 8001,1838 7989,1861 7974,1882 7959,1902 7943,1921 7925,1938 7906,1954 7887,1969 7867,1982 7845,1993 7822,2002 8082,2483 8082,2512 7899,2512 7659,2043 Z M 7425,1884 L 7633,1884 7658,1883 7682,1881 7703,1877 7725,1870 7744,1863 7753,1858 7762,1854 7771,1849 7780,1842 7788,1836 7795,1830 7802,1822 7809,1816 7815,1807 7821,1800 7826,1791 7831,1783 7835,1774 7839,1766 7844,1756 7847,1746 7849,1737 7851,1726 7854,1705 7855,1682 7854,1658 7851,1635 7847,1613 7844,1603 7840,1594 7836,1584 7832,1575 7827,1566 7822,1559 7817,1550 7811,1543 7805,1535 7798,1529 7791,1522 7783,1516 7775,1511 7766,1505 7757,1501 7748,1497 7729,1489 7707,1483 7684,1479 7659,1477 7632,1475 7425,1475 7425,1884 Z M 8225,2512 L 8225,1317 8553,1317 8590,1318 8625,1321 8660,1326 8693,1334 8726,1343 8757,1355 8787,1370 8817,1386 8845,1404 8872,1424 8896,1447 8919,1470 8941,1496 8960,1522 8978,1552 8995,1583 9009,1616 9022,1649 9032,1685 9041,1720 9048,1757 9053,1796 9056,1834 9057,1874 9057,1949 9056,1991 9053,2030 9048,2070 9041,2107 9033,2144 9022,2180 9009,2213 8995,2246 8978,2277 8960,2305 8940,2333 8918,2359 8895,2382 8871,2404 8844,2424 8816,2442 8786,2458 8756,2472 8724,2485 8691,2494 8657,2502 8621,2507 8584,2511 8547,2512 8225,2512 Z M 8403,1475 L 8403,2353 8540,2353 8579,2351 8616,2347 8650,2339 8668,2333 8683,2328 8698,2320 8713,2313 8728,2304 8742,2295 8755,2284 8767,2273 8779,2262 8791,2249 8802,2235 8812,2221 8821,2206 8829,2190 8837,2174 8845,2157 8858,2121 8868,2081 8874,2039 8879,1994 8880,1946 8880,1878 8879,1831 8875,1787 8868,1746 8859,1708 8847,1672 8840,1655 8832,1639 8824,1624 8816,1609 8806,1595 8796,1581 8784,1568 8773,1557 8761,1546 8749,1535 8736,1526 8723,1517 8708,1510 8694,1502 8679,1497 8664,1490 8647,1486 8630,1483 8595,1478 8557,1475 8403,1475 Z"/>
        <path fill="none" stroke="rgb(53,82,105)" stroke-width="35" stroke-linejoin="miter" d="M 1622,2110 L 1614,2161 1605,2208 1592,2252 1577,2294 1559,2331 1548,2348 1537,2365 1526,2381 1514,2396 1501,2410 1487,2424 1472,2437 1457,2448 1442,2459 1426,2470 1391,2488 1355,2502 1316,2513 1275,2522 1232,2526 1186,2528 1136,2526 1113,2523 1090,2519 1066,2513 1045,2507 1024,2500 1002,2490 983,2480 964,2469 945,2456 926,2443 909,2428 892,2412 876,2394 860,2376 845,2357 832,2336 819,2315 807,2293 785,2247 768,2198 755,2145 746,2089 740,2030 738,1968 738,1856 739,1816 742,1776 746,1738 752,1701 760,1664 770,1630 781,1596 794,1564 810,1533 826,1504 843,1478 863,1452 884,1429 906,1407 930,1387 956,1369 982,1353 1011,1339 1039,1327 1069,1318 1100,1310 1132,1305 1165,1302 1199,1301 1244,1303 1287,1307 1326,1315 1364,1327 1399,1342 1417,1352 1433,1361 1449,1372 1464,1383 1478,1395 1493,1408 1506,1422 1519,1437 1531,1452 1542,1468 1553,1485 1563,1503 1580,1541 1595,1582 1606,1626 1615,1673 1622,1723 1445,1723 1439,1688 1432,1655 1424,1625 1415,1598 1404,1574 1392,1552 1386,1542 1380,1533 1373,1525 1366,1517 1359,1510 1351,1503 1342,1497 1333,1491 1324,1486 1315,1482 1305,1478 1295,1473 1273,1467 1250,1463 1226,1461 1199,1459 1167,1461 1152,1463 1136,1466 1122,1469 1108,1473 1095,1479 1082,1485 1068,1491 1056,1499 1045,1507 1034,1517 1023,1527 1012,1537 1001,1549 992,1562 983,1575 975,1590 967,1603 960,1619 947,1653 935,1688 927,1727 922,1768 918,1813 917,1860 917,1973 918,2017 921,2060 927,2100 934,2138 945,2173 957,2205 971,2236 979,2250 988,2264 997,2277 1006,2288 1017,2300 1028,2311 1038,2319 1049,2329 1061,2336 1073,2343 1086,2349 1099,2355 1112,2359 1126,2363 1140,2366 1156,2367 1171,2369 1186,2369 1215,2368 1241,2366 1265,2362 1288,2357 1309,2349 1319,2344 1328,2340 1337,2334 1345,2329 1354,2323 1362,2316 1369,2309 1376,2301 1383,2293 1389,2283 1396,2273 1401,2262 1412,2238 1423,2211 1431,2181 1439,2147 1445,2110 1622,2110 Z"/>
        <path fill="none" stroke="rgb(53,82,105)" stroke-width="35" stroke-linejoin="miter" d="M 2692,1951 L 2691,1994 2688,2036 2684,2076 2678,2116 2670,2153 2660,2189 2649,2224 2636,2257 2620,2289 2604,2319 2587,2347 2568,2374 2546,2398 2524,2421 2501,2441 2475,2459 2449,2475 2421,2490 2392,2502 2363,2511 2332,2519 2300,2524 2267,2527 2233,2528 2199,2527 2167,2524 2135,2519 2104,2510 2074,2501 2046,2489 2018,2474 1992,2458 1967,2440 1942,2420 1920,2397 1900,2374 1879,2348 1861,2320 1845,2291 1830,2260 1816,2227 1804,2192 1794,2157 1786,2121 1779,2082 1774,2044 1771,2004 1770,1962 1770,1878 1771,1835 1773,1794 1778,1755 1784,1717 1792,1679 1801,1643 1813,1609 1827,1575 1842,1543 1858,1513 1876,1484 1896,1458 1917,1434 1940,1411 1965,1391 1990,1372 2016,1355 2045,1341 2073,1328 2103,1319 2133,1310 2165,1305 2197,1302 2231,1301 2265,1302 2298,1305 2330,1310 2360,1319 2391,1328 2419,1340 2448,1355 2474,1371 2500,1389 2524,1409 2546,1432 2567,1456 2587,1483 2604,1511 2620,1541 2636,1573 2649,1607 2660,1641 2670,1677 2678,1714 2684,1754 2688,1793 2691,1835 2692,1878 2692,1951 Z"/>
        <path fill="none" stroke="rgb(53,82,105)" stroke-width="35" stroke-linejoin="miter" d="M 2515,1877 L 2514,1829 2510,1783 2505,1740 2495,1701 2485,1663 2472,1630 2465,1614 2457,1599 2449,1585 2440,1571 2431,1559 2420,1547 2409,1536 2399,1526 2387,1516 2375,1507 2363,1500 2350,1493 2337,1486 2323,1481 2309,1477 2294,1472 2278,1470 2263,1468 2231,1466 2214,1466 2199,1468 2184,1470 2170,1472 2154,1477 2141,1481 2128,1486 2115,1493 2102,1500 2089,1507 2078,1516 2066,1526 2056,1536 2045,1547 2035,1559 2026,1571 2008,1599 1992,1628 1979,1660 1969,1693 1960,1729 1953,1767 1949,1807 1947,1849 1947,1951 1948,1999 1952,2044 1959,2087 1967,2126 1977,2163 1990,2197 2005,2228 2014,2243 2024,2256 2034,2269 2044,2282 2054,2294 2065,2304 2076,2314 2088,2323 2101,2331 2114,2339 2127,2344 2141,2350 2155,2355 2170,2359 2185,2361 2200,2363 2216,2365 2233,2365 2265,2364 2280,2362 2296,2359 2310,2356 2324,2351 2337,2346 2350,2340 2363,2333 2375,2326 2387,2317 2398,2308 2409,2298 2419,2287 2430,2276 2439,2263 2448,2250 2456,2235 2464,2221 2471,2205 2484,2172 2494,2136 2503,2097 2509,2056 2513,2011 2515,1963 2515,1877 Z"/>
        <path fill="none" stroke="rgb(53,82,105)" stroke-width="35" stroke-linejoin="miter" d="M 3783,2512 L 3611,2512 3079,1616 3079,2512 2900,2512 2900,1317 3072,1317 3605,2216 3605,1317 3783,1317 3783,2512 Z"/>
        <path fill="none" stroke="rgb(53,82,105)" stroke-width="35" stroke-linejoin="miter" d="M 4878,2110 L 4871,2161 4861,2208 4848,2252 4833,2294 4815,2331 4805,2348 4793,2365 4782,2381 4770,2396 4757,2410 4743,2424 4728,2437 4713,2448 4698,2459 4682,2470 4647,2488 4611,2502 4572,2513 4532,2522 4488,2526 4442,2528 4393,2526 4369,2523 4346,2519 4322,2513 4301,2507 4280,2500 4259,2490 4239,2480 4220,2469 4201,2456 4182,2443 4165,2428 4148,2412 4132,2394 4116,2376 4101,2357 4088,2336 4075,2315 4063,2293 4041,2247 4024,2198 4011,2145 4002,2089 3996,2030 3994,1968 3994,1856 3995,1816 3998,1776 4002,1738 4008,1701 4016,1664 4026,1630 4037,1596 4050,1564 4066,1533 4082,1504 4099,1478 4119,1452 4140,1429 4162,1407 4186,1387 4212,1369 4238,1353 4267,1339 4295,1327 4326,1318 4356,1310 4388,1305 4421,1302 4455,1301 4500,1303 4543,1307 4582,1315 4620,1327 4655,1342 4673,1352 4689,1361 4705,1372 4720,1383 4735,1395 4749,1408 4762,1422 4775,1437 4787,1452 4799,1468 4809,1485 4819,1503 4836,1541 4851,1582 4862,1626 4872,1673 4878,1723 4701,1723 4695,1688 4688,1655 4680,1625 4671,1598 4660,1574 4648,1552 4642,1542 4636,1533 4629,1525 4622,1517 4615,1510 4607,1503 4599,1497 4589,1491 4580,1486 4571,1482 4561,1478 4551,1473 4530,1467 4506,1463 4482,1461 4455,1459 4423,1461 4408,1463 4393,1466 4378,1469 4364,1473 4351,1479 4338,1485 4325,1491 4312,1499 4301,1507 4290,1517 4279,1527 4268,1537 4258,1549 4248,1562 4239,1575 4231,1590 4223,1603 4216,1619 4203,1653 4192,1688 4183,1727 4178,1768 4174,1813 4173,1860 4173,1973 4174,2017 4177,2060 4183,2100 4191,2138 4201,2173 4213,2205 4227,2236 4235,2250 4244,2264 4253,2277 4263,2288 4273,2300 4284,2311 4294,2319 4305,2329 4317,2336 4330,2343 4342,2349 4355,2355 4368,2359 4382,2363 4397,2366 4412,2367 4427,2369 4442,2369 4471,2368 4497,2366 4521,2362 4544,2357 4565,2349 4575,2344 4584,2340 4593,2334 4602,2329 4610,2323 4618,2316 4625,2309 4632,2301 4639,2293 4645,2283 4652,2273 4657,2262 4669,2238 4679,2211 4687,2181 4695,2147 4701,2110 4878,2110 Z"/>
        <path fill="none" stroke="rgb(53,82,105)" stroke-width="35" stroke-linejoin="miter" d="M 5949,1951 L 5948,1994 5944,2036 5940,2076 5934,2116 5926,2153 5916,2189 5905,2224 5892,2257 5876,2289 5860,2319 5843,2347 5824,2374 5802,2398 5780,2421 5757,2441 5731,2459 5705,2475 5678,2490 5648,2502 5619,2511 5588,2519 5556,2524 5523,2527 5489,2528 5455,2527 5423,2524 5391,2519 5360,2510 5330,2501 5302,2489 5275,2474 5248,2458 5223,2440 5198,2420 5176,2397 5156,2374 5136,2348 5117,2320 5101,2291 5086,2260 5073,2227 5060,2192 5050,2157 5042,2121 5035,2082 5030,2044 5027,2004 5026,1962 5026,1878 5027,1835 5029,1794 5034,1755 5040,1717 5048,1679 5057,1643 5070,1609 5083,1575 5098,1543 5114,1513 5132,1484 5152,1458 5173,1434 5196,1411 5221,1391 5246,1372 5273,1355 5301,1341 5329,1328 5359,1319 5389,1310 5421,1305 5453,1302 5487,1301 5521,1302 5554,1305 5586,1310 5617,1319 5647,1328 5675,1340 5704,1355 5730,1371 5756,1389 5780,1409 5802,1432 5823,1456 5843,1483 5860,1511 5876,1541 5892,1573 5905,1607 5916,1641 5926,1677 5934,1714 5940,1754 5944,1793 5948,1835 5949,1878 5949,1951 Z"/>
        <path fill="none" stroke="rgb(53,82,105)" stroke-width="35" stroke-linejoin="miter" d="M 5771,1877 L 5770,1829 5766,1783 5761,1740 5752,1701 5741,1663 5728,1630 5721,1614 5713,1599 5705,1585 5696,1571 5687,1559 5677,1547 5665,1536 5655,1526 5643,1516 5631,1507 5619,1500 5606,1493 5593,1486 5579,1481 5565,1477 5550,1472 5534,1470 5519,1468 5487,1466 5470,1466 5455,1468 5440,1470 5426,1472 5411,1477 5397,1481 5384,1486 5371,1493 5358,1500 5346,1507 5334,1516 5322,1526 5312,1536 5301,1547 5291,1559 5282,1571 5264,1599 5248,1628 5235,1660 5225,1693 5216,1729 5210,1767 5206,1807 5204,1849 5204,1951 5205,1999 5209,2044 5215,2087 5223,2126 5233,2163 5246,2197 5261,2228 5271,2243 5280,2256 5290,2269 5300,2282 5310,2294 5321,2304 5332,2314 5345,2323 5357,2331 5370,2339 5383,2344 5397,2350 5412,2355 5426,2359 5441,2361 5456,2363 5472,2365 5489,2365 5521,2364 5536,2362 5552,2359 5566,2356 5580,2351 5593,2346 5606,2340 5619,2333 5631,2326 5643,2317 5654,2308 5665,2298 5675,2287 5686,2276 5695,2263 5704,2250 5712,2235 5720,2221 5727,2205 5740,2172 5751,2136 5759,2097 5765,2056 5769,2011 5771,1963 5771,1877 Z"/>
        <path fill="none" stroke="rgb(53,82,105)" stroke-width="35" stroke-linejoin="miter" d="M 7040,1951 L 7039,1994 7036,2036 7032,2076 7025,2116 7017,2153 7007,2189 6996,2224 6983,2257 6968,2289 6951,2319 6934,2347 6915,2374 6893,2398 6871,2421 6848,2441 6822,2459 6796,2475 6769,2490 6739,2502 6710,2511 6679,2519 6647,2524 6614,2527 6580,2528 6546,2527 6514,2524 6482,2519 6451,2510 6422,2501 6393,2489 6366,2474 6339,2458 6314,2440 6290,2420 6267,2397 6247,2374 6227,2348 6208,2320 6192,2291 6177,2260 6164,2227 6152,2192 6141,2157 6133,2121 6126,2082 6121,2044 6118,2004 6117,1962 6117,1878 6118,1835 6120,1794 6125,1755 6131,1717 6139,1679 6148,1643 6161,1609 6174,1575 6189,1543 6205,1513 6224,1484 6243,1458 6264,1434 6288,1411 6312,1391 6337,1372 6364,1355 6392,1341 6421,1328 6450,1319 6480,1310 6512,1305 6544,1302 6578,1301 6612,1302 6645,1305 6677,1310 6708,1319 6738,1328 6767,1340 6795,1355 6821,1371 6847,1389 6871,1409 6893,1432 6914,1456 6934,1483 6951,1511 6968,1541 6983,1573 6996,1607 7007,1641 7017,1677 7025,1714 7032,1754 7036,1793 7039,1835 7040,1878 7040,1951 Z"/>
        <path fill="none" stroke="rgb(53,82,105)" stroke-width="35" stroke-linejoin="miter" d="M 6862,1877 L 6861,1829 6857,1783 6852,1740 6843,1701 6833,1663 6819,1630 6812,1614 6804,1599 6796,1585 6787,1571 6778,1559 6768,1547 6756,1536 6746,1526 6734,1516 6722,1507 6710,1500 6698,1493 6684,1486 6670,1481 6656,1477 6641,1472 6626,1470 6610,1468 6578,1466 6562,1466 6546,1468 6531,1470 6517,1472 6502,1477 6489,1481 6475,1486 6462,1493 6449,1500 6437,1507 6426,1516 6413,1526 6403,1536 6392,1547 6382,1559 6373,1571 6356,1599 6339,1628 6326,1660 6316,1693 6307,1729 6301,1767 6297,1807 6295,1849 6295,1951 6296,1999 6300,2044 6306,2087 6314,2126 6324,2163 6337,2197 6353,2228 6362,2243 6371,2256 6381,2269 6391,2282 6401,2294 6412,2304 6424,2314 6436,2323 6448,2331 6461,2339 6474,2344 6489,2350 6503,2355 6517,2359 6532,2361 6547,2363 6564,2365 6580,2365 6612,2364 6628,2362 6643,2359 6657,2356 6671,2351 6684,2346 6698,2340 6710,2333 6722,2326 6734,2317 6745,2308 6756,2298 6767,2287 6777,2276 6786,2263 6795,2250 6803,2235 6811,2221 6818,2205 6832,2172 6842,2136 6850,2097 6856,2056 6860,2011 6862,1963 6862,1877 Z"/>
        <path fill="none" stroke="rgb(53,82,105)" stroke-width="35" stroke-linejoin="miter" d="M 7659,2043 L 7425,2043 7425,2512 7247,2512 7247,1317 7629,1317 7676,1318 7720,1322 7761,1329 7800,1340 7836,1353 7853,1360 7869,1369 7885,1378 7900,1388 7915,1399 7928,1410 7941,1422 7952,1435 7963,1449 7974,1463 7984,1478 7992,1493 8000,1509 8007,1526 8013,1543 8018,1561 8023,1580 8027,1599 8031,1640 8033,1682 8032,1711 8029,1738 8025,1765 8019,1790 8010,1815 8001,1838 7989,1861 7974,1882 7959,1902 7943,1921 7925,1938 7906,1954 7887,1969 7867,1982 7845,1993 7822,2002 8082,2483 8082,2512 7899,2512 7659,2043 Z"/>
        <path fill="none" stroke="rgb(53,82,105)" stroke-width="35" stroke-linejoin="miter" d="M 7425,1884 L 7633,1884 7658,1883 7682,1881 7703,1877 7725,1870 7744,1863 7753,1858 7762,1854 7771,1849 7780,1842 7788,1836 7795,1830 7802,1822 7809,1816 7815,1807 7821,1800 7826,1791 7831,1783 7835,1774 7839,1766 7844,1756 7847,1746 7849,1737 7851,1726 7854,1705 7855,1682 7854,1658 7851,1635 7847,1613 7844,1603 7840,1594 7836,1584 7832,1575 7827,1566 7822,1559 7817,1550 7811,1543 7805,1535 7798,1529 7791,1522 7783,1516 7775,1511 7766,1505 7757,1501 7748,1497 7729,1489 7707,1483 7684,1479 7659,1477 7632,1475 7425,1475 7425,1884 Z"/>
        <path fill="none" stroke="rgb(53,82,105)" stroke-width="35" stroke-linejoin="miter" d="M 8225,2512 L 8225,1317 8553,1317 8590,1318 8625,1321 8660,1326 8693,1334 8726,1343 8757,1355 8787,1370 8817,1386 8845,1404 8872,1424 8896,1447 8919,1470 8941,1496 8960,1522 8978,1552 8995,1583 9009,1616 9022,1649 9032,1685 9041,1720 9048,1757 9053,1796 9056,1834 9057,1874 9057,1949 9056,1991 9053,2030 9048,2070 9041,2107 9033,2144 9022,2180 9009,2213 8995,2246 8978,2277 8960,2305 8940,2333 8918,2359 8895,2382 8871,2404 8844,2424 8816,2442 8786,2458 8756,2472 8724,2485 8691,2494 8657,2502 8621,2507 8584,2511 8547,2512 8225,2512 Z"/>
        <path fill="none" stroke="rgb(53,82,105)" stroke-width="35" stroke-linejoin="miter" d="M 8403,1475 L 8403,2353 8540,2353 8579,2351 8616,2347 8650,2339 8668,2333 8683,2328 8698,2320 8713,2313 8728,2304 8742,2295 8755,2284 8767,2273 8779,2262 8791,2249 8802,2235 8812,2221 8821,2206 8829,2190 8837,2174 8845,2157 8858,2121 8868,2081 8874,2039 8879,1994 8880,1946 8880,1878 8879,1831 8875,1787 8868,1746 8859,1708 8847,1672 8840,1655 8832,1639 8824,1624 8816,1609 8806,1595 8796,1581 8784,1568 8773,1557 8761,1546 8749,1535 8736,1526 8723,1517 8708,1510 8694,1502 8679,1497 8664,1490 8647,1486 8630,1483 8595,1478 8557,1475 8403,1475 Z"/>
       </g>
      </g>
     </g>
    </g>
   </g>
  </g>
 </g>
</svg>